<?xml version="1.0" encoding="utf-8"?>
<svg version="1.1" width="15" height="15" id="svg2" xmlns="http://www.w3.org/2000/svg">
  <g transform="matrix(1.666667, 0, 0, 1.666667, -991.666992, -1278.937378)" id="layer1">
    <path d="m 597,767.36218 2,0 0,1 1,0 0,-1 2,0 0,1 1,0 0,1 1,0 0,3 -1,0 0,1 -1,0 0,1 -1,0 0,1 -1,0 0,1 -1,0 0,-1 -1,0 0,-1 -1,0 0,-1 -1,0 0,-1 -1,0 0,-3 1,0 0,-1 1,0 z" id="path4139" style="fill:#000000;fill-opacity:1;stroke:none"/>
    <path d="M 2,1 4,1 4,2 5,2 5,1 7,1 7,2 8,2 8,5 7,5 7,6 6,6 6,7 5,7 5,8 4,8 4,7 3,7 3,6 2,6 2,5 1,5 1,2 2,2 2,1" transform="translate(595,767.36218)" id="path4665" style="fill:#ff0000;fill-opacity:1;stroke:none"/>
  </g>
  <g id="layer3" transform="matrix(1.666667, 0, 0, 1.666667, 0.000083, 0.000103)">
    <path d="m 597,770.36218 0,-1 1,0 0,1 z" transform="translate(-595,-767.36218)" id="path4653" style="fill:#ffc8c8;fill-opacity:1;stroke:none"/>
    <path d="m 596,771.36218 1,0 0,1 1,0 0,1 1,0 0,1 1,0 0,-1 1,0 0,-1 1,0 0,-1 1,0 0,1 -1,0 0,1 -1,0 0,1 -1,0 0,1 -1,0 0,-1 -1,0 0,-1 -1,0 0,-1 -1,0 0,-1 0,0" transform="translate(-595,-767.36218)" id="path4657" style="fill:#bb1313;fill-opacity:1;stroke:none"/>
  </g>
</svg>
