<?xml version="1.0"?>
<svg width="18" height="16" xmlns="http://www.w3.org/2000/svg" xmlns:svg="http://www.w3.org/2000/svg">
 <g class="layer">
  <title>Layer 1</title>
  <path d="m15.03,10.6l0,-5l-1,0l0,-2l-1,0l0,-1l-2,0l0,-1l-5,0l0,1l-2,0l0,1l-1,0l0,2l2,0l0,1l3,0l0,1l3,0l0,1l-3,0l0,1l-3,0l0,1l-2,0l0,2l1,0l0,1l2,0l0,1l5,0l0,-1l2,0l0,-1l1,0l0,-2l1,0z" fill="#FFFF00" id="svg_2"/>
  <line fill="none" id="svg_15" stroke="#e02f2f" x1="6.14" x2="12.02" y1="3.57" y2="1.48"/>
  <line fill="none" id="svg_17" stroke="#e02828" x1="5.57" x2="12.67" y1="1.64" y2="3.33"/>
  <line fill="none" id="svg_18" stroke="#e02626" x1="5.9" x2="6.94" y1="1.96" y2="3.01"/>
  <line fill="none" id="svg_19" stroke="#e02c2c" x1="11.54" x2="11.94" y1="1.8" y2="3.01"/>
  <line fill="none" id="svg_20" stroke="#e02c2c" x1="10.98" x2="11.38" y1="1.64" y2="2.85"/>
  <line fill="none" id="svg_21" stroke="#e02c2c" x1="3.07" x2="5.09" y1="5.43" y2="6.23"/>
  <line fill="none" id="svg_22" stroke="#e02c2c" x1="3.15" x2="5.09" y1="10.67" y2="9.86"/>
 </g>
</svg>